<svg width="3254" height="1025" viewBox="0 0 3254 1025" fill="none" xmlns="http://www.w3.org/2000/svg">
<path d="M2839.93 778.987V152.894H2594.38V13.3905H3254V152.894H3007.34V778.987H2839.93Z" fill="#110930"/>
<path d="M1898.85 778.987V13.3905H2297.3C2352.36 13.3905 2398.12 23.8068 2434.58 44.6394C2471.79 64.7279 2499.69 93.3727 2518.29 130.574C2537.64 167.031 2547.31 210.556 2547.31 261.149C2547.31 311.742 2537.26 356.012 2517.17 393.957C2497.83 431.158 2469.18 460.174 2431.23 481.007C2393.29 501.84 2346.78 512.256 2291.72 512.256H2065.15V778.987H1898.85ZM2065.15 376.1H2269.4C2304.37 376.1 2331.16 366.056 2349.76 345.967C2369.11 325.879 2378.78 297.978 2378.78 262.265C2378.78 237.713 2374.69 217.252 2366.5 200.884C2358.32 184.515 2346.04 171.867 2329.67 162.939C2314.04 154.01 2293.95 149.546 2269.4 149.546H2065.15V376.1Z" fill="#110930"/>
<path d="M1364.62 792.381C1244.08 792.381 1151.07 760.388 1085.59 696.402C1020.86 631.673 988.492 531.602 988.492 396.19C988.492 306.164 1004.12 232.134 1035.37 174.101C1066.62 115.323 1112.01 71.7979 1171.53 43.5251C1231.06 14.5084 1302.49 0 1385.82 0C1435.68 0 1482.55 5.58013 1526.45 16.7404C1570.35 27.9007 1609.04 45.0131 1642.53 68.0778C1676.75 91.1424 1703.17 120.159 1721.77 155.128C1741.12 189.353 1750.79 230.274 1750.79 277.891H1582.26C1582.26 254.827 1577.05 234.366 1566.63 216.51C1556.96 198.653 1543.19 183.773 1525.34 171.869C1507.48 159.964 1487.02 151.036 1463.95 145.084C1440.88 139.132 1416.7 136.156 1391.4 136.156C1352.71 136.156 1318.86 141.364 1289.84 151.78C1260.82 161.452 1236.64 176.705 1217.29 197.537C1198.69 217.626 1184.55 242.922 1174.88 273.427C1165.21 303.932 1160.37 339.273 1160.37 379.45V412.931C1160.37 468.732 1168.56 514.49 1184.93 550.203C1201.3 585.916 1225.85 612.7 1258.59 630.557C1291.33 647.669 1331.88 656.225 1380.24 656.225C1420.42 656.225 1455.77 650.273 1486.27 638.369C1517.52 625.721 1541.71 607.864 1558.82 584.799C1576.68 561.735 1585.61 533.462 1585.61 499.981V492.169H1356.81V364.942H1750.79V778.989H1641.41L1626.9 696.402C1604.58 717.979 1580.4 735.836 1554.36 749.972C1529.06 764.108 1500.78 774.525 1469.53 781.221C1438.28 788.661 1403.31 792.381 1364.62 792.381Z" fill="#110930"/>
<path fill-rule="evenodd" clip-rule="evenodd" d="M1 84.6547C1 44.6338 33.2944 12.1904 73.1316 12.1904H481.877C694.342 12.1904 866.579 185.222 866.579 398.667C866.579 612.112 694.342 785.143 481.877 785.143H248.9L42.9462 1015.92C28.2213 1032.42 1 1021.96 1 999.797V84.6547ZM215.784 244.691C215.784 235.18 223.477 227.469 232.967 227.469H481.34C575.48 227.469 651.795 303.96 651.795 398.317C651.795 492.673 575.48 569.164 481.34 569.164H354.546L244.825 688.762C226.538 700.952 215.784 687.755 215.784 676.576V244.691Z" fill="url(#paint0_linear_3311_10242)" stroke="url(#paint1_linear_3311_10242)" stroke-opacity="0.6"/>
<defs>
<linearGradient id="paint0_linear_3311_10242" x1="0.999982" y1="1024" x2="891.762" y2="34.8689" gradientUnits="userSpaceOnUse">
<stop stop-color="#0000F6"/>
<stop offset="0.5" stop-color="#7F017B"/>
<stop offset="1" stop-color="#FE0100"/>
</linearGradient>
<linearGradient id="paint1_linear_3311_10242" x1="-35.5737" y1="963.048" x2="159.462" y2="-195.052" gradientUnits="userSpaceOnUse">
<stop stop-color="white"/>
<stop offset="0.884335" stop-color="white" stop-opacity="0"/>
<stop offset="1" stop-color="white"/>
</linearGradient>
</defs>
</svg>
