<svg width="3227" height="1024" viewBox="0 0 3227 1024" fill="none" xmlns="http://www.w3.org/2000/svg">
<path d="M2811.31 775.828V157.115H2568.68V19.2558H3220.48V157.115H2976.74V775.828H2811.31Z" fill="url(#paint0_linear_3311_10229)" fill-opacity="0.9"/>
<path d="M1881.39 775.828V19.2558H2275.12C2329.52 19.2558 2374.74 29.5493 2410.77 50.1363C2447.53 69.988 2475.1 98.2952 2493.48 135.058C2512.6 171.085 2522.16 214.097 2522.16 264.094C2522.16 314.091 2512.23 357.839 2492.38 395.336C2473.27 432.099 2444.96 460.774 2407.46 481.361C2369.96 501.948 2324.01 512.241 2269.6 512.241H2045.72V775.828H1881.39ZM2045.72 377.69H2247.54C2282.1 377.69 2308.57 367.764 2326.95 347.913C2346.07 328.061 2355.63 300.489 2355.63 265.197C2355.63 240.934 2351.58 220.714 2343.49 204.539C2335.41 188.363 2323.27 175.864 2307.1 167.041C2291.66 158.218 2271.81 153.807 2247.54 153.807H2045.72V377.69Z" fill="url(#paint1_linear_3311_10229)" fill-opacity="0.9"/>
<path d="M1353.48 789.065C1234.37 789.065 1142.47 757.449 1077.76 694.217C1013.8 630.25 981.814 531.359 981.814 397.544C981.814 308.579 997.254 235.421 1028.13 178.072C1059.01 119.987 1103.86 76.9747 1162.69 49.0352C1221.51 20.3604 1292.09 6.02307 1374.44 6.02307C1423.7 6.02307 1470.02 11.5374 1513.4 22.5662C1556.78 33.5949 1595.01 50.5057 1628.1 73.2984C1661.92 96.0912 1688.02 124.766 1706.4 159.323C1725.52 193.144 1735.08 233.583 1735.08 280.639H1568.54C1568.54 257.846 1563.4 237.627 1553.1 219.981C1543.54 202.335 1529.94 187.63 1512.3 175.866C1494.65 164.102 1474.43 155.279 1451.64 149.397C1428.85 143.515 1404.95 140.574 1379.95 140.574C1341.72 140.574 1308.26 145.721 1279.59 156.014C1250.92 165.572 1227.02 180.645 1207.9 201.232C1189.52 221.084 1175.55 246.082 1165.99 276.228C1156.44 306.373 1151.66 341.297 1151.66 381.001V414.087C1151.66 469.231 1159.74 514.449 1175.92 549.741C1192.1 585.033 1216.36 611.502 1248.71 629.148C1281.06 646.058 1321.13 654.514 1368.92 654.514C1408.63 654.514 1443.55 648.632 1473.7 636.868C1504.58 624.369 1528.47 606.723 1545.38 583.93C1563.03 561.137 1571.85 533.198 1571.85 500.111V492.391H1345.76V366.663H1735.08V775.83H1627L1612.66 694.217C1590.6 715.539 1566.71 733.186 1540.97 747.155C1515.97 761.125 1488.03 771.419 1457.15 778.036C1426.27 785.388 1391.72 789.065 1353.48 789.065Z" fill="url(#paint2_linear_3311_10229)" fill-opacity="0.9"/>
<path fill-rule="evenodd" clip-rule="evenodd" d="M6.02344 89.6842C6.02344 50.135 37.9352 18.074 77.3003 18.074H481.202C691.15 18.074 861.346 189.066 861.346 399.995C861.346 610.924 691.15 781.916 481.202 781.916H250.986L47.4726 1009.97C32.9221 1026.28 6.02344 1015.94 6.02344 994.04V89.6842ZM218.262 247.835C218.262 238.435 225.864 230.815 235.241 230.815H480.672C573.696 230.815 649.107 306.405 649.107 399.649C649.107 492.893 573.696 568.483 480.672 568.483H355.38L246.959 686.671C228.889 698.718 218.262 685.675 218.262 674.629V247.835Z" fill="url(#paint3_linear_3311_10229)"/>
<path fill-rule="evenodd" clip-rule="evenodd" d="M1374.44 12.0468C1292.77 12.0468 1223.14 26.2657 1165.32 54.4498L1165.27 54.4763C1107.63 81.8548 1063.73 123.944 1033.45 180.899L1033.44 180.928C1003.17 237.137 987.837 309.228 987.837 397.544C987.837 530.507 1019.62 627.541 1082 689.935C1145.25 751.736 1235.45 783.042 1353.48 783.042C1391.34 783.042 1425.42 779.401 1455.76 772.177L1455.89 772.145C1486.24 765.641 1513.61 755.546 1538.03 741.898L1538.1 741.862C1563.33 728.165 1586.79 710.848 1608.47 689.887L1616.63 682.003L1632.05 769.807H1729.05V372.687H1351.79V486.368H1577.88V500.112C1577.88 534.302 1568.74 563.575 1550.19 587.566C1532.51 611.369 1507.66 629.618 1475.96 642.452L1475.89 642.479C1444.9 654.57 1409.21 660.538 1368.92 660.538C1320.45 660.538 1279.36 651.965 1245.92 634.486L1245.82 634.437C1212.27 616.134 1187.13 588.657 1170.44 552.251C1153.79 515.913 1145.63 469.759 1145.63 414.087V381.001C1145.63 340.83 1150.47 305.269 1160.25 274.407C1170.03 243.559 1184.41 217.744 1203.48 197.14C1223.32 175.773 1248.09 160.176 1277.62 150.322C1307.07 139.759 1341.22 134.551 1379.95 134.551C1405.43 134.551 1429.83 137.548 1453.14 143.565C1476.52 149.597 1497.37 158.677 1515.64 170.854C1534.03 183.113 1548.31 198.51 1558.36 217.032C1568.29 234.088 1573.61 253.327 1574.45 274.616H1729C1728.22 230.974 1718.86 193.6 1701.16 162.287L1701.08 162.153C1683.18 128.504 1657.77 100.559 1624.73 78.2938L1624.68 78.2591C1592.25 55.9144 1554.68 39.2771 1511.92 28.4042C1469.07 17.5104 1423.25 12.0468 1374.44 12.0468ZM1160.07 43.6073C1219.9 14.4512 1291.42 0 1374.44 0C1424.15 0 1470.97 5.56508 1514.88 16.7288C1558.86 27.9096 1597.75 45.0862 1631.48 68.3154C1666.06 91.6183 1692.82 120.997 1711.68 156.424C1731.38 191.309 1741.1 232.793 1741.1 280.639V286.663H1562.52V280.639C1562.52 258.787 1557.6 239.638 1547.9 223.016L1547.85 222.934L1547.81 222.85C1538.74 206.116 1525.83 192.129 1508.96 180.878C1491.93 169.527 1472.34 160.961 1450.13 155.23C1427.86 149.482 1404.47 146.598 1379.95 146.598C1342.24 146.598 1309.5 151.676 1281.62 161.684L1281.5 161.73C1253.71 170.993 1230.7 185.537 1212.32 205.325C1194.64 224.425 1181.07 248.607 1171.74 278.048C1162.4 307.477 1157.68 341.765 1157.68 381.001V414.087C1157.68 468.703 1165.7 512.985 1181.4 547.231C1197.05 581.393 1220.42 606.846 1251.55 623.835C1282.81 640.162 1321.84 648.491 1368.92 648.491C1408.03 648.491 1442.17 642.699 1471.47 631.271C1501.49 619.115 1524.41 602.092 1540.55 580.341L1540.62 580.242C1557.33 558.657 1565.83 532.07 1565.83 500.112V498.415H1339.74V360.64H1741.1V781.854H1621.94L1608.65 706.226C1588.53 724.502 1566.94 739.91 1543.88 752.433C1518.33 766.704 1489.85 777.184 1458.48 783.911C1427.08 791.382 1392.07 795.088 1353.48 795.088C1233.31 795.088 1139.7 763.171 1073.55 698.525L1073.5 698.477C1007.96 632.937 975.79 532.196 975.79 397.544C975.79 307.931 991.336 233.707 1022.83 175.218M0 89.6845C0 46.8352 34.582 12.0509 77.3003 12.0509H481.202C694.503 12.0509 867.369 185.766 867.369 399.995C867.369 614.225 694.503 787.94 481.202 787.94H253.684L51.9667 1013.98C33.6916 1034.46 0 1021.41 0 994.04V89.6845ZM77.3003 24.0977C41.2882 24.0977 12.0468 53.4354 12.0468 89.6845V994.04C12.0468 1010.47 32.1526 1018.1 42.9784 1005.96L248.288 775.893H481.202C687.797 775.893 855.322 607.625 855.322 399.995C855.322 192.366 687.797 24.0977 481.202 24.0977H77.3003ZM1875.37 13.2327H2275.12C2330.22 13.2327 2376.53 23.6501 2413.69 44.8695C2451.47 65.286 2479.91 94.4615 2498.84 132.299C2518.49 169.358 2528.18 213.362 2528.18 264.094C2528.18 314.894 2518.09 359.637 2497.71 398.144C2497.71 398.147 2497.71 398.151 2497.71 398.155L2492.38 395.337L2497.73 398.116C2497.72 398.125 2497.72 398.134 2497.71 398.144C2478.03 435.986 2448.86 465.505 2410.36 486.641C2371.76 507.831 2324.75 518.265 2269.6 518.265H2051.74V512.241H2045.72V518.265H2051.74V781.852H1875.37V13.2327ZM1887.41 25.2795V769.805H2039.69V506.218H2269.6C2323.27 506.218 2368.16 496.065 2404.56 476.081C2441.05 456.048 2468.49 428.227 2487.04 392.558L2487.06 392.518C2506.38 356.032 2516.14 313.284 2516.14 264.094C2516.14 214.862 2506.73 172.864 2488.16 137.881L2488.1 137.753C2470.28 102.117 2443.6 74.7103 2407.91 55.4366L2407.78 55.3679C2372.9 35.4384 2328.79 25.2795 2275.12 25.2795H1887.41ZM2562.65 13.2327H3226.5V163.139H2982.76V781.852H2805.29V163.139H2562.65V13.2327ZM2574.7 25.2795V151.092H2817.33V769.805H2970.72V151.092H3214.45V25.2795H2574.7ZM2039.69 147.784H2247.54C2272.46 147.784 2293.42 152.303 2310.03 161.781C2327.24 171.18 2340.24 184.565 2348.88 201.845C2357.5 219.093 2361.65 240.304 2361.65 265.197C2361.65 301.566 2351.78 330.785 2331.33 352.045C2311.52 373.422 2283.26 383.714 2247.54 383.714H2039.69V147.784ZM2051.74 159.83V371.667H2247.54C2280.92 371.667 2305.59 362.12 2322.53 343.821L2322.61 343.735C2340.37 325.296 2349.6 299.387 2349.6 265.197C2349.6 241.564 2345.66 222.337 2338.11 207.233C2330.58 192.179 2319.33 180.575 2304.21 172.329L2304.11 172.271C2289.85 164.124 2271.12 159.83 2247.54 159.83H2051.74ZM212.239 247.835C212.239 235.122 222.524 224.792 235.241 224.792H480.672C577.036 224.792 655.13 303.092 655.13 399.649C655.13 496.207 577.036 574.507 480.672 574.507H358.029L250.906 691.279L250.3 691.683C239.904 698.614 230.088 699.168 222.595 694.389C215.629 689.945 212.239 681.805 212.239 674.629V247.835ZM235.241 236.839C229.204 236.839 224.286 241.749 224.286 247.835V674.629C224.286 678.501 226.208 682.404 229.074 684.232C231.351 685.685 235.713 686.721 243.031 682.043L352.732 562.46H480.672C570.356 562.46 643.083 489.58 643.083 399.649C643.083 309.718 570.356 236.839 480.672 236.839H235.241Z" fill="url(#paint4_linear_3311_10229)" fill-opacity="0.6"/>
<path fill-rule="evenodd" clip-rule="evenodd" d="M1374.44 12.0468C1292.77 12.0468 1223.14 26.2657 1165.32 54.4498L1165.27 54.4763C1107.63 81.8548 1063.73 123.944 1033.45 180.899L1033.44 180.928C1003.17 237.137 987.837 309.228 987.837 397.544C987.837 530.507 1019.62 627.541 1082 689.935C1145.25 751.736 1235.45 783.042 1353.48 783.042C1391.34 783.042 1425.42 779.401 1455.76 772.177L1455.89 772.145C1486.24 765.641 1513.61 755.546 1538.03 741.898L1538.1 741.862C1563.33 728.165 1586.79 710.848 1608.47 689.887L1616.63 682.003L1632.05 769.807H1729.05V372.687H1351.79V486.368H1577.88V500.112C1577.88 534.302 1568.74 563.575 1550.19 587.566C1532.51 611.369 1507.66 629.618 1475.96 642.452L1475.89 642.479C1444.9 654.57 1409.21 660.538 1368.92 660.538C1320.45 660.538 1279.36 651.965 1245.92 634.486L1245.82 634.437C1212.27 616.134 1187.13 588.657 1170.44 552.251C1153.79 515.913 1145.63 469.759 1145.63 414.087V381.001C1145.63 340.83 1150.47 305.269 1160.25 274.407C1170.03 243.559 1184.41 217.744 1203.48 197.14C1223.32 175.773 1248.09 160.176 1277.62 150.322C1307.07 139.759 1341.22 134.551 1379.95 134.551C1405.43 134.551 1429.83 137.548 1453.14 143.565C1476.52 149.597 1497.37 158.677 1515.64 170.854C1534.03 183.113 1548.31 198.51 1558.36 217.032C1568.29 234.088 1573.61 253.327 1574.45 274.616H1729C1728.22 230.974 1718.86 193.6 1701.16 162.287L1701.08 162.153C1683.18 128.504 1657.77 100.559 1624.73 78.2938L1624.68 78.2591C1592.25 55.9144 1554.68 39.2771 1511.92 28.4042C1469.07 17.5104 1423.25 12.0468 1374.44 12.0468ZM1160.07 43.6073C1219.9 14.4512 1291.42 0 1374.44 0C1424.15 0 1470.97 5.56508 1514.88 16.7288C1558.86 27.9096 1597.75 45.0862 1631.48 68.3154C1666.06 91.6183 1692.82 120.997 1711.68 156.424C1731.38 191.309 1741.1 232.793 1741.1 280.639V286.663H1562.52V280.639C1562.52 258.787 1557.6 239.638 1547.9 223.016L1547.85 222.934L1547.81 222.85C1538.74 206.116 1525.83 192.129 1508.96 180.878C1491.93 169.527 1472.34 160.961 1450.13 155.23C1427.86 149.482 1404.47 146.598 1379.95 146.598C1342.24 146.598 1309.5 151.676 1281.62 161.684L1281.5 161.73C1253.71 170.993 1230.7 185.537 1212.32 205.325C1194.64 224.425 1181.07 248.607 1171.74 278.048C1162.4 307.477 1157.68 341.765 1157.68 381.001V414.087C1157.68 468.703 1165.7 512.985 1181.4 547.231C1197.05 581.393 1220.42 606.846 1251.55 623.835C1282.81 640.162 1321.84 648.491 1368.92 648.491C1408.03 648.491 1442.17 642.699 1471.47 631.271C1501.49 619.115 1524.41 602.092 1540.55 580.341L1540.62 580.242C1557.33 558.657 1565.83 532.07 1565.83 500.112V498.415H1339.74V360.64H1741.1V781.854H1621.94L1608.65 706.226C1588.53 724.502 1566.94 739.91 1543.88 752.433C1518.33 766.704 1489.85 777.184 1458.48 783.911C1427.08 791.382 1392.07 795.088 1353.48 795.088C1233.31 795.088 1139.7 763.171 1073.55 698.525L1073.5 698.477C1007.96 632.937 975.79 532.196 975.79 397.544C975.79 307.931 991.336 233.707 1022.83 175.218M0 89.6845C0 46.8352 34.582 12.0509 77.3003 12.0509H481.202C694.503 12.0509 867.369 185.766 867.369 399.995C867.369 614.225 694.503 787.94 481.202 787.94H253.684L51.9667 1013.98C33.6916 1034.46 0 1021.41 0 994.04V89.6845ZM77.3003 24.0977C41.2882 24.0977 12.0468 53.4354 12.0468 89.6845V994.04C12.0468 1010.47 32.1526 1018.1 42.9784 1005.96L248.288 775.893H481.202C687.797 775.893 855.322 607.625 855.322 399.995C855.322 192.366 687.797 24.0977 481.202 24.0977H77.3003ZM1875.37 13.2327H2275.12C2330.22 13.2327 2376.53 23.6501 2413.69 44.8695C2451.47 65.286 2479.91 94.4615 2498.84 132.299C2518.49 169.358 2528.18 213.362 2528.18 264.094C2528.18 314.894 2518.09 359.637 2497.71 398.144C2497.71 398.147 2497.71 398.151 2497.71 398.155L2492.38 395.337L2497.73 398.116C2497.72 398.125 2497.72 398.134 2497.71 398.144C2478.03 435.986 2448.86 465.505 2410.36 486.641C2371.76 507.831 2324.75 518.265 2269.6 518.265H2051.74V512.241H2045.72V518.265H2051.74V781.852H1875.37V13.2327ZM1887.41 25.2795V769.805H2039.69V506.218H2269.6C2323.27 506.218 2368.16 496.065 2404.56 476.081C2441.05 456.048 2468.49 428.227 2487.04 392.558L2487.06 392.518C2506.38 356.032 2516.14 313.284 2516.14 264.094C2516.14 214.862 2506.73 172.864 2488.16 137.881L2488.1 137.753C2470.28 102.117 2443.6 74.7103 2407.91 55.4366L2407.78 55.3679C2372.9 35.4384 2328.79 25.2795 2275.12 25.2795H1887.41ZM2562.65 13.2327H3226.5V163.139H2982.76V781.852H2805.29V163.139H2562.65V13.2327ZM2574.7 25.2795V151.092H2817.33V769.805H2970.72V151.092H3214.45V25.2795H2574.7ZM2039.69 147.784H2247.54C2272.46 147.784 2293.42 152.303 2310.03 161.781C2327.24 171.18 2340.24 184.565 2348.88 201.845C2357.5 219.093 2361.65 240.304 2361.65 265.197C2361.65 301.566 2351.78 330.785 2331.33 352.045C2311.52 373.422 2283.26 383.714 2247.54 383.714H2039.69V147.784ZM2051.74 159.83V371.667H2247.54C2280.92 371.667 2305.59 362.12 2322.53 343.821L2322.61 343.735C2340.37 325.296 2349.6 299.387 2349.6 265.197C2349.6 241.564 2345.66 222.337 2338.11 207.233C2330.58 192.179 2319.33 180.575 2304.21 172.329L2304.11 172.271C2289.85 164.124 2271.12 159.83 2247.54 159.83H2051.74ZM212.239 247.835C212.239 235.122 222.524 224.792 235.241 224.792H480.672C577.036 224.792 655.13 303.092 655.13 399.649C655.13 496.207 577.036 574.507 480.672 574.507H358.029L250.906 691.279L250.3 691.683C239.904 698.614 230.088 699.168 222.595 694.389C215.629 689.945 212.239 681.805 212.239 674.629V247.835ZM235.241 236.839C229.204 236.839 224.286 241.749 224.286 247.835V674.629C224.286 678.501 226.208 682.404 229.074 684.232C231.351 685.685 235.713 686.721 243.031 682.043L352.732 562.46H480.672C570.356 562.46 643.083 489.58 643.083 399.649C643.083 309.718 570.356 236.839 480.672 236.839H235.241Z" fill="url(#paint5_linear_3311_10229)" fill-opacity="0.15"/>
<defs>
<linearGradient id="paint0_linear_3311_10229" x1="118.459" y1="714.377" x2="3261.17" y2="320.41" gradientUnits="userSpaceOnUse">
<stop stop-color="white"/>
<stop offset="0.45" stop-color="#BDBDBD"/>
<stop offset="0.785" stop-color="white"/>
<stop offset="1" stop-color="#AFAFAF"/>
</linearGradient>
<linearGradient id="paint1_linear_3311_10229" x1="118.459" y1="714.377" x2="3261.17" y2="320.41" gradientUnits="userSpaceOnUse">
<stop stop-color="white"/>
<stop offset="0.45" stop-color="#BDBDBD"/>
<stop offset="0.785" stop-color="white"/>
<stop offset="1" stop-color="#AFAFAF"/>
</linearGradient>
<linearGradient id="paint2_linear_3311_10229" x1="118.459" y1="714.377" x2="3261.17" y2="320.41" gradientUnits="userSpaceOnUse">
<stop stop-color="white"/>
<stop offset="0.45" stop-color="#BDBDBD"/>
<stop offset="0.785" stop-color="white"/>
<stop offset="1" stop-color="#AFAFAF"/>
</linearGradient>
<linearGradient id="paint3_linear_3311_10229" x1="6.02342" y1="1017.95" x2="886.292" y2="40.5368" gradientUnits="userSpaceOnUse">
<stop stop-color="#3333FF"/>
<stop offset="0.5" stop-color="#980194"/>
<stop offset="1" stop-color="#FE0100"/>
</linearGradient>
<linearGradient id="paint4_linear_3311_10229" x1="331.287" y1="668.597" x2="162.632" y2="-186.725" gradientUnits="userSpaceOnUse">
<stop stop-color="white"/>
<stop offset="0.504301" stop-color="white" stop-opacity="0"/>
<stop offset="1" stop-color="white"/>
</linearGradient>
<linearGradient id="paint5_linear_3311_10229" x1="190.594" y1="435.878" x2="318.285" y2="395.076" gradientUnits="userSpaceOnUse">
<stop stop-color="white" stop-opacity="0"/>
<stop offset="0.391094" stop-color="white" stop-opacity="0.44888"/>
<stop offset="1" stop-color="white"/>
</linearGradient>
</defs>
</svg>
